Bodoni-72-Book-Italic.ufo
<glyph name="ampersand" format="1">
  <advance width="3230"/>
  <unicode hex="0026"/>
  <outline>
    <contour>
      <point x="1060" y="-12" type="curve" smooth="yes"/>
      <point x="2092" y="-12"/>
      <point x="3166" y="976"/>
      <point x="3170" y="1516" type="curve" smooth="yes"/>
      <point x="3170" y="1586" type="line"/>
      <point x="3142" y="1464"/>
      <point x="3048" y="1372"/>
      <point x="2908" y="1372" type="curve" smooth="yes"/>
      <point x="2744" y="1372"/>
      <point x="2654" y="1504"/>
      <point x="2654" y="1606" type="curve" smooth="yes"/>
      <point x="2654" y="1728"/>
      <point x="2756" y="1840"/>
      <point x="2908" y="1840" type="curve" smooth="yes"/>
      <point x="3104" y="1840"/>
      <point x="3190" y="1688"/>
      <point x="3190" y="1540" type="curve" smooth="yes"/>
      <point x="3190" y="966"/>
      <point x="2104" y="-40"/>
      <point x="978" y="-40" type="curve" smooth="yes"/>
      <point x="392" y="-40"/>
      <point x="82" y="234"/>
      <point x="82" y="656" type="curve" smooth="yes"/>
      <point x="82" y="1802"/>
      <point x="2216" y="1416"/>
      <point x="2216" y="2662" type="curve" smooth="yes"/>
      <point x="2216" y="2834"/>
      <point x="2122" y="3100"/>
      <point x="1922" y="3100" type="curve" smooth="yes"/>
      <point x="1566" y="3100"/>
      <point x="1404" y="2798"/>
      <point x="1404" y="2540" type="curve" smooth="yes"/>
      <point x="1404" y="2396"/>
      <point x="1454" y="2212"/>
      <point x="1564" y="1926" type="curve" smooth="yes"/>
      <point x="2154" y="390" type="line" smooth="yes"/>
      <point x="2212" y="222"/>
      <point x="2282" y="16"/>
      <point x="2446" y="16" type="curve" smooth="yes"/>
      <point x="2622" y="16"/>
      <point x="2780" y="134"/>
      <point x="2850" y="290" type="curve"/>
      <point x="2864" y="286" type="line"/>
      <point x="2786" y="106"/>
      <point x="2576" y="-40"/>
      <point x="2252" y="-40" type="curve" smooth="yes"/>
      <point x="1952" y="-40"/>
      <point x="1790" y="94"/>
      <point x="1684" y="372" type="curve" smooth="yes"/>
      <point x="1082" y="1926" type="line" smooth="yes"/>
      <point x="1012" y="2098"/>
      <point x="974" y="2244"/>
      <point x="974" y="2388" type="curve" smooth="yes"/>
      <point x="974" y="2798"/>
      <point x="1364" y="3112"/>
      <point x="1922" y="3112" type="curve" smooth="yes"/>
      <point x="2278" y="3112"/>
      <point x="2600" y="2970"/>
      <point x="2600" y="2642" type="curve" smooth="yes"/>
      <point x="2600" y="1668"/>
      <point x="532" y="2002"/>
      <point x="532" y="614" type="curve" smooth="yes"/>
      <point x="532" y="442"/>
      <point x="634" y="-12"/>
    </contour>
  </outline>
</glyph>
<glyph name="period" format="1">
  <advance width="818"/>
  <unicode hex="002E"/>
  <outline>
    <contour>
      <point x="40" y="204" type="curve" smooth="yes"/>
      <point x="40" y="340"/>
      <point x="150" y="450"/>
      <point x="286" y="450" type="curve" smooth="yes"/>
      <point x="422" y="450"/>
      <point x="532" y="340"/>
      <point x="532" y="204" type="curve" smooth="yes"/>
      <point x="532" y="68"/>
      <point x="422" y="-40"/>
      <point x="286" y="-40" type="curve" smooth="yes"/>
      <point x="150" y="-40"/>
      <point x="40" y="68"/>
    </contour>
  </outline>
</glyph>
<glyph name="three" format="1">
  <advance width="2134"/>
  <unicode hex="0033"/>
  <outline>
    <contour>
      <point x="594" y="2498" type="curve" smooth="yes"/>
      <point x="594" y="2792"/>
      <point x="938" y="3108"/>
      <point x="1438" y="3108" type="curve" smooth="yes"/>
      <point x="1810" y="3108"/>
      <point x="2174" y="2994"/>
      <point x="2174" y="2544" type="curve" smooth="yes"/>
      <point x="2174" y="2134"/>
      <point x="1838" y="1662"/>
      <point x="892" y="1662" type="curve"/>
      <point x="892" y="1672" type="line"/>
      <point x="1544" y="1672"/>
      <point x="1762" y="2204"/>
      <point x="1762" y="2544" type="curve" smooth="yes"/>
      <point x="1762" y="2888"/>
      <point x="1660" y="3080"/>
      <point x="1336" y="3080" type="curve" smooth="yes"/>
      <point x="996" y="3080"/>
      <point x="656" y="2846"/>
      <point x="610" y="2568" type="curve"/>
      <point x="630" y="2618"/>
      <point x="718" y="2700"/>
      <point x="828" y="2700" type="curve" smooth="yes"/>
      <point x="946" y="2700"/>
      <point x="1060" y="2618"/>
      <point x="1060" y="2474" type="curve" smooth="yes"/>
      <point x="1060" y="2310"/>
      <point x="930" y="2244"/>
      <point x="828" y="2244" type="curve" smooth="yes"/>
      <point x="706" y="2244"/>
      <point x="594" y="2330"/>
    </contour>
    <contour>
      <point x="20" y="558" type="curve" smooth="yes"/>
      <point x="20" y="726"/>
      <point x="122" y="824"/>
      <point x="266" y="824" type="curve" smooth="yes"/>
      <point x="388" y="824"/>
      <point x="488" y="742"/>
      <point x="488" y="594" type="curve" smooth="yes"/>
      <point x="488" y="462"/>
      <point x="372" y="368"/>
      <point x="254" y="368" type="curve" smooth="yes"/>
      <point x="132" y="368"/>
      <point x="48" y="454"/>
      <point x="32" y="540" type="curve"/>
      <point x="36" y="216"/>
      <point x="358" y="-24"/>
      <point x="824" y="-24" type="curve" smooth="yes"/>
      <point x="1312" y="-24"/>
      <point x="1556" y="480"/>
      <point x="1556" y="942" type="curve" smooth="yes"/>
      <point x="1556" y="1286"/>
      <point x="1462" y="1662"/>
      <point x="892" y="1662" type="curve"/>
      <point x="892" y="1672" type="line"/>
      <point x="1756" y="1672"/>
      <point x="1970" y="1392"/>
      <point x="1970" y="942" type="curve" smooth="yes"/>
      <point x="1970" y="410"/>
      <point x="1442" y="-40"/>
      <point x="864" y="-40" type="curve" smooth="yes"/>
      <point x="282" y="-40"/>
      <point x="20" y="264"/>
    </contour>
  </outline>
</glyph>
<glyph name="A" format="1">
  <advance width="2968"/>
  <unicode hex="0041"/>
  <outline>
    <contour>
      <point x="-184" y="12" type="line"/>
      <point x="716" y="12" type="line"/>
      <point x="716" y="0" type="line"/>
      <point x="-184" y="0" type="line"/>
    </contour>
    <contour>
      <point x="1496" y="12" type="line"/>
      <point x="2682" y="12" type="line"/>
      <point x="2682" y="0" type="line"/>
      <point x="1496" y="0" type="line"/>
    </contour>
    <contour>
      <point x="774" y="1008" type="line"/>
      <point x="2110" y="1008" type="line"/>
      <point x="2110" y="1000" type="line"/>
      <point x="774" y="1000" type="line"/>
    </contour>
    <contour>
      <point x="1700" y="2596" type="line"/>
      <point x="200" y="0" type="line"/>
      <point x="188" y="0" type="line"/>
      <point x="1994" y="3134" type="line"/>
      <point x="2008" y="3134" type="line"/>
      <point x="2396" y="0" type="line"/>
      <point x="1966" y="0" type="line"/>
    </contour>
  </outline>
</glyph>
<glyph name="C" format="1">
  <advance width="2714"/>
  <unicode hex="0043"/>
  <outline>
    <contour>
      <point x="1270" y="-40" type="curve" smooth="yes"/>
      <point x="644" y="-40"/>
      <point x="226" y="376"/>
      <point x="226" y="1044" type="curve" smooth="yes"/>
      <point x="226" y="2162"/>
      <point x="1054" y="3112"/>
      <point x="2008" y="3112" type="curve" smooth="yes"/>
      <point x="2492" y="3112"/>
      <point x="2860" y="2818"/>
      <point x="2786" y="2232" type="curve"/>
      <point x="2772" y="2232" type="line"/>
      <point x="2846" y="2794"/>
      <point x="2502" y="3092"/>
      <point x="2048" y="3092" type="curve" smooth="yes"/>
      <point x="1172" y="3092"/>
      <point x="676" y="1748"/>
      <point x="676" y="798" type="curve" smooth="yes"/>
      <point x="676" y="380"/>
      <point x="884" y="-20"/>
      <point x="1310" y="-20" type="curve" smooth="yes"/>
      <point x="1858" y="-20"/>
      <point x="2322" y="356"/>
      <point x="2486" y="840" type="curve"/>
      <point x="2498" y="840" type="line"/>
      <point x="2334" y="336"/>
      <point x="1856" y="-40"/>
    </contour>
    <contour>
      <point x="2772" y="2232" type="line"/>
      <point x="2790" y="2322" type="line"/>
      <point x="2798" y="2502"/>
      <point x="2764" y="2668"/>
      <point x="2682" y="2786" type="curve"/>
      <point x="2970" y="3072" type="line"/>
      <point x="2982" y="3072" type="line"/>
      <point x="2786" y="2232" type="line"/>
    </contour>
    <contour>
      <point x="2486" y="840" type="line"/>
      <point x="2498" y="840" type="line"/>
      <point x="2274" y="0" type="line"/>
      <point x="2260" y="0" type="line"/>
      <point x="2130" y="286" type="line"/>
      <point x="2232" y="388"/>
      <point x="2340" y="490"/>
      <point x="2442" y="708" type="curve"/>
    </contour>
  </outline>
</glyph>
<glyph name="G" format="1">
  <advance width="2980"/>
  <unicode hex="0047"/>
  <outline>
    <contour>
      <point x="2228" y="1168" type="line"/>
      <point x="2654" y="1168" type="line"/>
      <point x="2528" y="676" type="line"/>
      <point x="2344" y="418"/>
      <point x="1938" y="-40"/>
      <point x="1270" y="-40" type="curve" smooth="yes"/>
      <point x="644" y="-40"/>
      <point x="226" y="376"/>
      <point x="226" y="1044" type="curve" smooth="yes"/>
      <point x="226" y="2162"/>
      <point x="1054" y="3112"/>
      <point x="2008" y="3112" type="curve" smooth="yes"/>
      <point x="2492" y="3112"/>
      <point x="2860" y="2818"/>
      <point x="2786" y="2232" type="curve"/>
      <point x="2772" y="2232" type="line"/>
      <point x="2842" y="2806"/>
      <point x="2486" y="3092"/>
      <point x="2048" y="3092" type="curve" smooth="yes"/>
      <point x="1172" y="3092"/>
      <point x="676" y="1748"/>
      <point x="676" y="798" type="curve" smooth="yes"/>
      <point x="676" y="380"/>
      <point x="806" y="-28"/>
      <point x="1232" y="-28" type="curve" smooth="yes"/>
      <point x="1740" y="-28"/>
      <point x="1994" y="422"/>
      <point x="2056" y="512" type="curve"/>
    </contour>
    <contour>
      <point x="1864" y="1172" type="line"/>
      <point x="2970" y="1172" type="line"/>
      <point x="2970" y="1164" type="line"/>
      <point x="1864" y="1164" type="line"/>
    </contour>
    <contour>
      <point x="2970" y="3072" type="line"/>
      <point x="2982" y="3072" type="line"/>
      <point x="2786" y="2232" type="line"/>
      <point x="2772" y="2232" type="line"/>
      <point x="2790" y="2330" type="line"/>
      <point x="2798" y="2478"/>
      <point x="2764" y="2650"/>
      <point x="2682" y="2786" type="curve"/>
    </contour>
  </outline>
</glyph>
<glyph name="J" format="1">
  <advance width="1724"/>
  <unicode hex="004A"/>
  <outline>
    <contour>
      <point x="762" y="3072" type="line"/>
      <point x="2114" y="3072" type="line"/>
      <point x="2114" y="3060" type="line"/>
      <point x="762" y="3060" type="line"/>
    </contour>
    <contour>
      <point x="-106" y="336" type="curve"/>
      <point x="-106" y="152"/>
      <point x="42" y="-110"/>
      <point x="312" y="-110" type="curve" smooth="yes"/>
      <point x="562" y="-110"/>
      <point x="662" y="204"/>
      <point x="794" y="778" type="curve" smooth="yes"/>
      <point x="1314" y="3072" type="line"/>
      <point x="1704" y="3072" type="line"/>
      <point x="1168" y="692" type="line"/>
      <point x="1004" y="406"/>
      <point x="726" y="-122"/>
      <point x="312" y="-122" type="curve" smooth="yes"/>
      <point x="38" y="-122"/>
      <point x="-122" y="144"/>
      <point x="-122" y="348" type="curve" smooth="yes"/>
      <point x="-122" y="520"/>
      <point x="-12" y="614"/>
      <point x="110" y="614" type="curve" smooth="yes"/>
      <point x="212" y="614"/>
      <point x="340" y="540"/>
      <point x="340" y="372" type="curve" smooth="yes"/>
      <point x="340" y="220"/>
      <point x="228" y="136"/>
      <point x="122" y="136" type="curve" smooth="yes"/>
      <point x="-10" y="136"/>
      <point x="-78" y="218"/>
    </contour>
  </outline>
</glyph>
<glyph name="O" format="1">
  <advance width="2928"/>
  <unicode hex="004F"/>
  <outline>
    <contour>
      <point x="1228" y="-40" type="curve" smooth="yes"/>
      <point x="602" y="-40"/>
      <point x="226" y="376"/>
      <point x="226" y="1044" type="curve" smooth="yes"/>
      <point x="226" y="2162"/>
      <point x="1054" y="3112"/>
      <point x="1926" y="3112" type="curve" smooth="yes"/>
      <point x="2512" y="3112"/>
      <point x="2928" y="2696"/>
      <point x="2928" y="2028" type="curve" smooth="yes"/>
      <point x="2928" y="910"/>
      <point x="2142" y="-40"/>
    </contour>
    <contour>
      <point x="1926" y="3100" type="curve" smooth="yes"/>
      <point x="1172" y="3100"/>
      <point x="676" y="1748"/>
      <point x="676" y="798" type="curve" smooth="yes"/>
      <point x="676" y="380"/>
      <point x="802" y="-28"/>
      <point x="1228" y="-28" type="curve" smooth="yes"/>
      <point x="2022" y="-28"/>
      <point x="2478" y="1324"/>
      <point x="2478" y="2274" type="curve" smooth="yes"/>
      <point x="2478" y="2610"/>
      <point x="2352" y="3100"/>
    </contour>
  </outline>
</glyph>
<glyph name="c" format="1">
  <advance width="1900"/>
  <unicode hex="0063"/>
  <outline>
    <contour>
      <point x="1806" y="1450" type="curve"/>
      <point x="1798" y="1700"/>
      <point x="1606" y="1900"/>
      <point x="1262" y="1900" type="curve" smooth="yes"/>
      <point x="734" y="1900"/>
      <point x="488" y="1082"/>
      <point x="488" y="574" type="curve" smooth="yes"/>
      <point x="488" y="230"/>
      <point x="536" y="-20"/>
      <point x="758" y="-20" type="curve" smooth="yes"/>
      <point x="1066" y="-20"/>
      <point x="1442" y="176"/>
      <point x="1642" y="586" type="curve"/>
      <point x="1654" y="586" type="line"/>
      <point x="1466" y="188"/>
      <point x="1084" y="-40"/>
      <point x="712" y="-40" type="curve" smooth="yes"/>
      <point x="422" y="-40"/>
      <point x="62" y="124"/>
      <point x="62" y="656" type="curve" smooth="yes"/>
      <point x="62" y="1434"/>
      <point x="664" y="1926"/>
      <point x="1200" y="1926" type="curve" smooth="yes"/>
      <point x="1576" y="1926"/>
      <point x="1818" y="1732"/>
      <point x="1818" y="1438" type="curve" smooth="yes"/>
      <point x="1818" y="1230"/>
      <point x="1686" y="1142"/>
      <point x="1564" y="1142" type="curve" smooth="yes"/>
      <point x="1462" y="1142"/>
      <point x="1332" y="1208"/>
      <point x="1332" y="1372" type="curve" smooth="yes"/>
      <point x="1332" y="1516"/>
      <point x="1454" y="1598"/>
      <point x="1572" y="1598" type="curve" smooth="yes"/>
      <point x="1716" y="1598"/>
      <point x="1782" y="1536"/>
    </contour>
  </outline>
</glyph>
<glyph name="u" format="1">
  <advance width="2486"/>
  <unicode hex="0075"/>
  <outline>
    <contour>
      <point x="922" y="1884" type="line"/>
      <point x="606" y="544" type="line" smooth="yes"/>
      <point x="532" y="220"/>
      <point x="542" y="4"/>
      <point x="730" y="4" type="curve" smooth="yes"/>
      <point x="1046" y="4"/>
      <point x="1418" y="504"/>
      <point x="1582" y="1176" type="curve"/>
      <point x="1594" y="1176" type="line"/>
      <point x="1438" y="554"/>
      <point x="1092" y="-40"/>
      <point x="630" y="-40" type="curve" smooth="yes"/>
      <point x="232" y="-40"/>
      <point x="180" y="242"/>
      <point x="254" y="578" type="curve" smooth="yes"/>
      <point x="544" y="1872" type="line"/>
      <point x="258" y="1872" type="line"/>
      <point x="258" y="1884" type="line"/>
    </contour>
    <contour>
      <point x="2404" y="668" type="line"/>
      <point x="2248" y="258"/>
      <point x="2008" y="-40"/>
      <point x="1676" y="-40" type="curve" smooth="yes"/>
      <point x="1484" y="-40"/>
      <point x="1384" y="54"/>
      <point x="1384" y="258" type="curve" smooth="yes"/>
      <point x="1384" y="278"/>
      <point x="1388" y="324"/>
      <point x="1392" y="348" type="curve" smooth="yes"/>
      <point x="1736" y="1884" type="line"/>
      <point x="2110" y="1884" type="line"/>
      <point x="1704" y="152" type="line" smooth="yes"/>
      <point x="1700" y="128"/>
      <point x="1696" y="98"/>
      <point x="1696" y="78" type="curve" smooth="yes"/>
      <point x="1696" y="32"/>
      <point x="1716" y="0"/>
      <point x="1770" y="0" type="curve" smooth="yes"/>
      <point x="2032" y="0"/>
      <point x="2260" y="316"/>
      <point x="2396" y="672" type="curve"/>
    </contour>
  </outline>
</glyph>
<glyph name="v" format="1">
  <advance width="2154"/>
  <unicode hex="0076"/>
  <outline>
    <contour>
      <point x="888" y="504" type="line" smooth="yes"/>
      <point x="834" y="180"/>
      <point x="786" y="-4"/>
      <point x="1016" y="-4" type="curve" smooth="yes"/>
      <point x="1438" y="-4"/>
      <point x="2080" y="784"/>
      <point x="2080" y="1410" type="curve" smooth="yes"/>
      <point x="2080" y="1598"/>
      <point x="2048" y="1712"/>
      <point x="2016" y="1766" type="curve"/>
      <point x="2020" y="1688"/>
      <point x="1966" y="1454"/>
      <point x="1774" y="1454" type="curve" smooth="yes"/>
      <point x="1590" y="1454"/>
      <point x="1524" y="1586"/>
      <point x="1524" y="1688" type="curve" smooth="yes"/>
      <point x="1524" y="1810"/>
      <point x="1622" y="1922"/>
      <point x="1774" y="1922" type="curve" smooth="yes"/>
      <point x="2032" y="1922"/>
      <point x="2094" y="1660"/>
      <point x="2094" y="1410" type="curve" smooth="yes"/>
      <point x="2094" y="788"/>
      <point x="1454" y="-40"/>
      <point x="950" y="-40" type="curve" smooth="yes"/>
      <point x="552" y="-40"/>
      <point x="458" y="200"/>
      <point x="520" y="536" type="curve" smooth="yes"/>
      <point x="738" y="1732" type="line" smooth="yes"/>
      <point x="742" y="1756"/>
      <point x="746" y="1786"/>
      <point x="746" y="1806" type="curve" smooth="yes"/>
      <point x="746" y="1852"/>
      <point x="722" y="1884"/>
      <point x="668" y="1884" type="curve" smooth="yes"/>
      <point x="418" y="1884"/>
      <point x="180" y="1560"/>
      <point x="54" y="1212" type="curve"/>
      <point x="40" y="1216" type="line"/>
      <point x="196" y="1626"/>
      <point x="438" y="1926"/>
      <point x="770" y="1926" type="curve" smooth="yes"/>
      <point x="962" y="1926"/>
      <point x="1070" y="1822"/>
      <point x="1070" y="1646" type="curve" smooth="yes"/>
      <point x="1070" y="1584"/>
      <point x="1056" y="1536"/>
      <point x="1052" y="1508" type="curve" smooth="yes"/>
    </contour>
  </outline>
</glyph>
<glyph name="z" format="1">
  <advance width="1580"/>
  <unicode hex="007A"/>
  <outline>
    <contour>
      <point x="90" y="1146" type="line"/>
      <point x="262" y="1884" type="line"/>
      <point x="484" y="1762"/>
      <point x="730" y="1724"/>
      <point x="918" y="1724" type="curve" smooth="yes"/>
      <point x="1114" y="1724"/>
      <point x="1482" y="1740"/>
      <point x="1614" y="1872" type="curve"/>
      <point x="1622" y="1860" type="line"/>
      <point x="1314" y="1574"/>
      <point x="998" y="1414"/>
      <point x="712" y="1414" type="curve" smooth="yes"/>
      <point x="532" y="1414"/>
      <point x="314" y="1488"/>
      <point x="208" y="1590" type="curve"/>
      <point x="102" y="1146" type="line"/>
    </contour>
    <contour>
      <point x="-180" y="-36" type="line"/>
      <point x="-196" y="-32" type="line"/>
      <point x="1610" y="1864" type="line"/>
      <point x="1622" y="1860" type="line"/>
    </contour>
    <contour>
      <point x="1500" y="652" type="curve"/>
      <point x="1484" y="562"/>
      <point x="1404" y="476"/>
      <point x="1286" y="476" type="curve" smooth="yes"/>
      <point x="1180" y="476"/>
      <point x="1074" y="558"/>
      <point x="1074" y="680" type="curve" smooth="yes"/>
      <point x="1074" y="824"/>
      <point x="1184" y="888"/>
      <point x="1286" y="888" type="curve" smooth="yes"/>
      <point x="1408" y="888"/>
      <point x="1512" y="824"/>
      <point x="1512" y="656" type="curve" smooth="yes"/>
      <point x="1512" y="452"/>
      <point x="1286" y="-40"/>
      <point x="950" y="-40" type="curve" smooth="yes"/>
      <point x="700" y="-40"/>
      <point x="606" y="160"/>
      <point x="336" y="160" type="curve" smooth="yes"/>
      <point x="140" y="160"/>
      <point x="-52" y="92"/>
      <point x="-184" y="-40" type="curve"/>
      <point x="-192" y="-32" type="line"/>
      <point x="78" y="214"/>
      <point x="378" y="390"/>
      <point x="664" y="390" type="curve" smooth="yes"/>
      <point x="886" y="390"/>
      <point x="974" y="212"/>
      <point x="1208" y="212" type="curve" smooth="yes"/>
      <point x="1412" y="212"/>
      <point x="1500" y="538"/>
    </contour>
  </outline>
</glyph>
<glyph name="sterling" format="1">
  <advance width="2560"/>
  <unicode hex="00A3"/>
  <outline>
    <contour>
      <point x="2424" y="644" type="line"/>
      <point x="2342" y="50"/>
      <point x="1970" y="-122"/>
      <point x="1606" y="-122" type="curve" smooth="yes"/>
      <point x="1044" y="-122"/>
      <point x="860" y="122"/>
      <point x="602" y="122" type="curve" smooth="yes"/>
      <point x="434" y="122"/>
      <point x="230" y="40"/>
      <point x="148" y="-82" type="curve"/>
      <point x="136" y="-82" type="line"/>
      <point x="258" y="222"/>
      <point x="488" y="398"/>
      <point x="868" y="398" type="curve" smooth="yes"/>
      <point x="1278" y="398"/>
      <point x="1318" y="258"/>
      <point x="1708" y="258" type="curve" smooth="yes"/>
      <point x="2044" y="258"/>
      <point x="2330" y="308"/>
      <point x="2412" y="644" type="curve"/>
    </contour>
    <contour>
      <point x="2110" y="1658" type="line"/>
      <point x="2110" y="1646" type="line"/>
      <point x="266" y="1646" type="line"/>
      <point x="266" y="1658" type="line"/>
    </contour>
    <contour>
      <point x="812" y="2088" type="curve" smooth="yes"/>
      <point x="812" y="2702"/>
      <point x="1322" y="3112"/>
      <point x="2064" y="3112" type="curve" smooth="yes"/>
      <point x="2604" y="3112"/>
      <point x="2876" y="2778"/>
      <point x="2876" y="2442" type="curve" smooth="yes"/>
      <point x="2876" y="2274"/>
      <point x="2756" y="2188"/>
      <point x="2634" y="2188" type="curve" smooth="yes"/>
      <point x="2532" y="2188"/>
      <point x="2400" y="2252"/>
      <point x="2400" y="2416" type="curve" smooth="yes"/>
      <point x="2400" y="2560"/>
      <point x="2516" y="2642"/>
      <point x="2634" y="2642" type="curve" smooth="yes"/>
      <point x="2756" y="2642"/>
      <point x="2848" y="2548"/>
      <point x="2864" y="2466" type="curve"/>
      <point x="2864" y="2756"/>
      <point x="2610" y="3092"/>
      <point x="2106" y="3092" type="curve" smooth="yes"/>
      <point x="1536" y="3092"/>
      <point x="1266" y="2556"/>
      <point x="1266" y="2252" type="curve" smooth="yes"/>
      <point x="1266" y="1970"/>
      <point x="1352" y="1782"/>
      <point x="1352" y="1434" type="curve" smooth="yes"/>
      <point x="1352" y="656"/>
      <point x="90" y="552"/>
      <point x="144" y="-82" type="curve"/>
      <point x="132" y="-82" type="line"/>
      <point x="54" y="488"/>
      <point x="938" y="808"/>
      <point x="938" y="1274" type="curve" smooth="yes"/>
      <point x="938" y="1496"/>
      <point x="812" y="1740"/>
    </contour>
  </outline>
</glyph>
<glyph name="section" format="1">
  <advance width="1940"/>
  <unicode hex="00A7"/>
  <outline>
    <contour>
      <point x="824" y="2596" type="curve" smooth="yes"/>
      <point x="824" y="2162"/>
      <point x="1876" y="2264"/>
      <point x="1876" y="1638" type="curve" smooth="yes"/>
      <point x="1876" y="1302"/>
      <point x="1536" y="1188"/>
      <point x="1314" y="1040" type="curve"/>
      <point x="1302" y="1040" type="line"/>
      <point x="1442" y="1130"/>
      <point x="1564" y="1282"/>
      <point x="1564" y="1446" type="curve" smooth="yes"/>
      <point x="1564" y="1900"/>
      <point x="586" y="1746"/>
      <point x="586" y="2450" type="curve" smooth="yes"/>
      <point x="586" y="2876"/>
      <point x="994" y="3112"/>
      <point x="1384" y="3112" type="curve" smooth="yes"/>
      <point x="1786" y="3112"/>
      <point x="2016" y="2834"/>
      <point x="2016" y="2564" type="curve" smooth="yes"/>
      <point x="2016" y="2314"/>
      <point x="1914" y="2212"/>
      <point x="1770" y="2212" type="curve" smooth="yes"/>
      <point x="1648" y="2212"/>
      <point x="1548" y="2294"/>
      <point x="1548" y="2442" type="curve" smooth="yes"/>
      <point x="1548" y="2574"/>
      <point x="1664" y="2666"/>
      <point x="1782" y="2666" type="curve" smooth="yes"/>
      <point x="1904" y="2666"/>
      <point x="1986" y="2580"/>
      <point x="2002" y="2552" type="curve"/>
      <point x="2006" y="2806"/>
      <point x="1818" y="3096"/>
      <point x="1384" y="3096" type="curve" smooth="yes"/>
      <point x="1084" y="3096"/>
      <point x="824" y="2870"/>
    </contour>
    <contour>
      <point x="1638" y="664" type="curve" smooth="yes"/>
      <point x="1638" y="238"/>
      <point x="1230" y="-40"/>
      <point x="758" y="-40" type="curve" smooth="yes"/>
      <point x="398" y="-40"/>
      <point x="46" y="142"/>
      <point x="46" y="536" type="curve" smooth="yes"/>
      <point x="46" y="704"/>
      <point x="168" y="872"/>
      <point x="332" y="872" type="curve" smooth="yes"/>
      <point x="454" y="872"/>
      <point x="552" y="792"/>
      <point x="552" y="644" type="curve" smooth="yes"/>
      <point x="552" y="512"/>
      <point x="438" y="418"/>
      <point x="278" y="418" type="curve" smooth="yes"/>
      <point x="152" y="418"/>
      <point x="74" y="484"/>
      <point x="58" y="566" type="curve"/>
      <point x="46" y="156"/>
      <point x="382" y="-24"/>
      <point x="758" y="-24" type="curve" smooth="yes"/>
      <point x="1180" y="-24"/>
      <point x="1360" y="304"/>
      <point x="1360" y="496" type="curve" smooth="yes"/>
      <point x="1360" y="972"/>
      <point x="282" y="828"/>
      <point x="282" y="1414" type="curve" smooth="yes"/>
      <point x="282" y="1708"/>
      <point x="606" y="1942"/>
      <point x="786" y="2048" type="curve"/>
      <point x="798" y="2048" type="line"/>
      <point x="740" y="1998"/>
      <point x="664" y="1832"/>
      <point x="664" y="1668" type="curve" smooth="yes"/>
      <point x="664" y="1132"/>
      <point x="1638" y="1410"/>
    </contour>
  </outline>
</glyph>
<glyph name="degree" format="1">
  <advance width="1310"/>
  <unicode hex="00B0"/>
  <outline>
    <contour>
      <point x="794" y="2786" type="curve" smooth="yes"/>
      <point x="794" y="3056"/>
      <point x="1016" y="3276"/>
      <point x="1286" y="3276" type="curve" smooth="yes"/>
      <point x="1556" y="3276"/>
      <point x="1778" y="3056"/>
      <point x="1778" y="2786" type="curve" smooth="yes"/>
      <point x="1778" y="2516"/>
      <point x="1556" y="2294"/>
      <point x="1286" y="2294" type="curve" smooth="yes"/>
      <point x="1016" y="2294"/>
      <point x="794" y="2516"/>
    </contour>
    <contour>
      <point x="884" y="2786" type="curve" smooth="yes"/>
      <point x="884" y="2556"/>
      <point x="1056" y="2384"/>
      <point x="1286" y="2384" type="curve" smooth="yes"/>
      <point x="1516" y="2384"/>
      <point x="1688" y="2556"/>
      <point x="1688" y="2786" type="curve" smooth="yes"/>
      <point x="1688" y="3016"/>
      <point x="1516" y="3186"/>
      <point x="1286" y="3186" type="curve" smooth="yes"/>
      <point x="1056" y="3186"/>
      <point x="884" y="3016"/>
    </contour>
  </outline>
</glyph>
<glyph name="AE" format="1">
  <advance width="4096"/>
  <unicode hex="00C6"/>
  <outline>
    <contour>
      <point x="2782" y="3072" type="line"/>
      <point x="4482" y="3072" type="line"/>
      <point x="4284" y="2232" type="line"/>
      <point x="4272" y="2232" type="line"/>
      <point x="4374" y="2670"/>
      <point x="4244" y="3060"/>
      <point x="3764" y="3060" type="curve" smooth="yes"/>
      <point x="2782" y="3060" type="line"/>
    </contour>
    <contour>
      <point x="2982" y="1586" type="curve" smooth="yes"/>
      <point x="2692" y="1586" type="line"/>
      <point x="2692" y="1594" type="line"/>
      <point x="2982" y="1594" type="line" smooth="yes"/>
      <point x="3216" y="1594"/>
      <point x="3464" y="1746"/>
      <point x="3526" y="2020" type="curve"/>
      <point x="3538" y="2020" type="line"/>
      <point x="3338" y="1138" type="line"/>
      <point x="3326" y="1138" type="line"/>
      <point x="3388" y="1412"/>
      <point x="3216" y="1586"/>
    </contour>
    <contour>
      <point x="3810" y="0" type="line"/>
      <point x="1638" y="0" type="line"/>
      <point x="1638" y="12" type="line"/>
      <point x="3052" y="12" type="line" smooth="yes"/>
      <point x="3614" y="12"/>
      <point x="3892" y="402"/>
      <point x="4010" y="922" type="curve"/>
      <point x="4022" y="922" type="line"/>
    </contour>
    <contour>
      <point x="2700" y="3072" type="line"/>
      <point x="3088" y="3072" type="line"/>
      <point x="2376" y="0" type="line"/>
      <point x="1986" y="0" type="line"/>
    </contour>
    <contour>
      <point x="1086" y="1008" type="line"/>
      <point x="2274" y="1008" type="line"/>
      <point x="2274" y="1000" type="line"/>
      <point x="1086" y="1000" type="line"/>
    </contour>
    <contour>
      <point x="2686" y="3072" type="line"/>
      <point x="2704" y="3072" type="line"/>
      <point x="308" y="0" type="line"/>
      <point x="290" y="0" type="line"/>
    </contour>
    <contour>
      <point x="-102" y="12" type="line"/>
      <point x="798" y="12" type="line"/>
      <point x="798" y="0" type="line"/>
      <point x="-102" y="0" type="line"/>
    </contour>
  </outline>
</glyph>
<glyph name="Thorn" format="1">
  <advance width="2478"/>
  <unicode hex="00DE"/>
  <outline>
    <contour>
      <point x="1228" y="738" type="curve" smooth="yes"/>
      <point x="778" y="738" type="line"/>
      <point x="778" y="750" type="line"/>
      <point x="1228" y="750" type="line" smooth="yes"/>
      <point x="1786" y="750"/>
      <point x="2110" y="1356"/>
      <point x="2110" y="1802" type="curve" smooth="yes"/>
      <point x="2110" y="2044"/>
      <point x="2032" y="2446"/>
      <point x="1638" y="2446" type="curve" smooth="yes"/>
      <point x="1044" y="2446" type="line"/>
      <point x="1044" y="2458" type="line"/>
      <point x="1638" y="2458" type="line" smooth="yes"/>
      <point x="2174" y="2458"/>
      <point x="2560" y="2254"/>
      <point x="2560" y="1762" type="curve" smooth="yes"/>
      <point x="2560" y="1148"/>
      <point x="2052" y="738"/>
    </contour>
    <contour>
      <point x="-102" y="12" type="line"/>
      <point x="1024" y="12" type="line"/>
      <point x="1024" y="0" type="line"/>
      <point x="-102" y="0" type="line"/>
    </contour>
    <contour>
      <point x="606" y="3072" type="line"/>
      <point x="1732" y="3072" type="line"/>
      <point x="1732" y="3060" type="line"/>
      <point x="606" y="3060" type="line"/>
    </contour>
    <contour>
      <point x="974" y="3072" type="line"/>
      <point x="1364" y="3072" type="line"/>
      <point x="656" y="0" type="line"/>
      <point x="266" y="0" type="line"/>
    </contour>
  </outline>
</glyph>
<glyph name="uni0213" format="1">
  <advance width="1616"/>
  <unicode hex="0213"/>
  <outline>
    <contour>
      <point x="1576" y="2170" type="line"/>
      <point x="1616" y="2370"/>
      <point x="1442" y="2474"/>
      <point x="1220" y="2474" type="curve" smooth="yes"/>
      <point x="998" y="2474"/>
      <point x="740" y="2370"/>
      <point x="700" y="2170" type="curve"/>
      <point x="688" y="2170" type="line"/>
      <point x="728" y="2420"/>
      <point x="894" y="2700"/>
      <point x="1262" y="2700" type="curve" smooth="yes"/>
      <point x="1630" y="2700"/>
      <point x="1630" y="2420"/>
      <point x="1590" y="2170" type="curve"/>
    </contour>
    <component base="r"/>
  </outline>
</glyph>
<glyph name="ogonek" format="1">
  <advance width="2252"/>
  <unicode hex="02DB"/>
  <outline>
    <contour>
      <point x="1302" y="-462" type="line"/>
      <point x="1240" y="-576"/>
      <point x="1122" y="-762"/>
      <point x="832" y="-762" type="curve" smooth="yes"/>
      <point x="624" y="-762"/>
      <point x="410" y="-696"/>
      <point x="410" y="-450" type="curve" smooth="yes"/>
      <point x="410" y="-122"/>
      <point x="872" y="94"/>
      <point x="1122" y="176" type="curve"/>
      <point x="1126" y="168" type="line"/>
      <point x="1000" y="98"/>
      <point x="790" y="-90"/>
      <point x="790" y="-430" type="curve" smooth="yes"/>
      <point x="790" y="-622"/>
      <point x="868" y="-712"/>
      <point x="966" y="-712" type="curve" smooth="yes"/>
      <point x="1130" y="-712"/>
      <point x="1232" y="-564"/>
      <point x="1290" y="-458" type="curve"/>
    </contour>
  </outline>
</glyph>
<glyph name="uniFB01" format="1">
  <advance width="2428"/>
  <unicode hex="FB01"/>
  <outline>
    <contour>
      <point x="2348" y="668" type="line"/>
      <point x="2192" y="258"/>
      <point x="1950" y="-40"/>
      <point x="1618" y="-40" type="curve" smooth="yes"/>
      <point x="1426" y="-40"/>
      <point x="1328" y="54"/>
      <point x="1328" y="258" type="curve" smooth="yes"/>
      <point x="1328" y="278"/>
      <point x="1332" y="324"/>
      <point x="1336" y="348" type="curve" smooth="yes"/>
      <point x="1680" y="1872" type="line"/>
      <point x="218" y="1872" type="line"/>
      <point x="218" y="1884" type="line"/>
      <point x="2052" y="1884" type="line"/>
      <point x="1646" y="152" type="line" smooth="yes"/>
      <point x="1642" y="128"/>
      <point x="1638" y="98"/>
      <point x="1638" y="78" type="curve" smooth="yes"/>
      <point x="1638" y="32"/>
      <point x="1658" y="0"/>
      <point x="1712" y="0" type="curve" smooth="yes"/>
      <point x="1962" y="0"/>
      <point x="2194" y="282"/>
      <point x="2338" y="672" type="curve"/>
    </contour>
    <contour>
      <point x="2174" y="2772" type="curve"/>
      <point x="2158" y="2908"/>
      <point x="2022" y="3100"/>
      <point x="1650" y="3100" type="curve" smooth="yes"/>
      <point x="1282" y="3100"/>
      <point x="1082" y="2712"/>
      <point x="992" y="2212" type="curve" smooth="yes"/>
      <point x="578" y="-50" type="line" smooth="yes"/>
      <point x="484" y="-566"/>
      <point x="134" y="-1064"/>
      <point x="-398" y="-1064" type="curve" smooth="yes"/>
      <point x="-730" y="-1064"/>
      <point x="-860" y="-832"/>
      <point x="-860" y="-660" type="curve" smooth="yes"/>
      <point x="-860" y="-492"/>
      <point x="-748" y="-406"/>
      <point x="-626" y="-406" type="curve" smooth="yes"/>
      <point x="-524" y="-406"/>
      <point x="-398" y="-462"/>
      <point x="-398" y="-626" type="curve" smooth="yes"/>
      <point x="-398" y="-790"/>
      <point x="-526" y="-856"/>
      <point x="-644" y="-856" type="curve" smooth="yes"/>
      <point x="-726" y="-856"/>
      <point x="-812" y="-798"/>
      <point x="-836" y="-724" type="curve"/>
      <point x="-820" y="-860"/>
      <point x="-688" y="-1052"/>
      <point x="-398" y="-1052" type="curve" smooth="yes"/>
      <point x="-112" y="-1052"/>
      <point x="90" y="-664"/>
      <point x="180" y="-164" type="curve" smooth="yes"/>
      <point x="594" y="2098" type="line" smooth="yes"/>
      <point x="688" y="2614"/>
      <point x="1036" y="3112"/>
      <point x="1650" y="3112" type="curve" smooth="yes"/>
      <point x="2064" y="3112"/>
      <point x="2196" y="2880"/>
      <point x="2196" y="2708" type="curve" smooth="yes"/>
      <point x="2196" y="2540"/>
      <point x="2084" y="2454"/>
      <point x="1962" y="2454" type="curve" smooth="yes"/>
      <point x="1860" y="2454"/>
      <point x="1732" y="2510"/>
      <point x="1732" y="2674" type="curve" smooth="yes"/>
      <point x="1732" y="2838"/>
      <point x="1860" y="2904"/>
      <point x="1978" y="2904" type="curve" smooth="yes"/>
      <point x="2060" y="2904"/>
      <point x="2150" y="2842"/>
    </contour>
  </outline>
</glyph>
